<mxfile host="65bd71144e">
    <diagram id="MCP-Open-Discovery-Arch" name="MCP Open Discovery Architecture">
        <mxGraphModel dx="472" dy="351" grid="1" gridSize="10" guides="1" tooltips="1" connect="1" arrows="1" fold="1" page="1" pageScale="1" pageWidth="850" pageHeight="1100" math="0" shadow="0">
            <root>
                <mxCell id="0"/>
                <mxCell id="1" parent="0"/>
                <mxCell id="2" value="LLM / VS Code / MCP Inspector" style="rounded=1;whiteSpace=wrap;html=1;fillColor=#dae8fc;strokeColor=#6c8ebf;" parent="1" vertex="1">
                    <mxGeometry x="10" y="60" width="180" height="60" as="geometry"/>
                </mxCell>
                <mxCell id="3" value="MCP Server (BusyBox/Nmap Tools, Memory, Tool API)" style="rounded=1;whiteSpace=wrap;html=1;fillColor=#fff2cc;strokeColor=#d6b656;" parent="1" vertex="1">
                    <mxGeometry x="300" y="40" width="220" height="100" as="geometry"/>
                </mxCell>
                <mxCell id="4" value="Node-RED Workflow (Automation, Triggers, Enrichment)" style="rounded=1;whiteSpace=wrap;html=1;fillColor=#e1d5e7;strokeColor=#9673a6;" parent="1" vertex="1">
                    <mxGeometry x="600" y="40" width="220" height="100" as="geometry"/>
                </mxCell>
                <mxCell id="5" value="Neo4j DB (OpenESM Schema)" style="rounded=1;whiteSpace=wrap;html=1;fillColor=#d5e8d4;strokeColor=#82b366;" parent="1" vertex="1">
                    <mxGeometry x="630" y="180" width="160" height="60" as="geometry"/>
                </mxCell>
                <mxCell id="6" style="edgeStyle=orthogonalEdgeStyle;rounded=0;orthogonalLoop=1;jettySize=auto;html=1;endArrow=block;endFill=1;strokeColor=#6c8ebf;" parent="1" source="2" target="3" edge="1">
                    <mxGeometry relative="1" as="geometry"/>
                </mxCell>
                <mxCell id="7" value="Tool Call / Discovery / Enrichment" style="text;html=1;strokeColor=none;fillColor=none;align=center;verticalAlign=bottom;fontStyle=1;whiteSpace=wrap;" parent="1" vertex="1">
                    <mxGeometry x="180" y="20" width="120" height="40" as="geometry"/>
                </mxCell>
                <mxCell id="8" style="edgeStyle=orthogonalEdgeStyle;rounded=0;orthogonalLoop=1;jettySize=auto;html=1;endArrow=block;endFill=1;strokeColor=#d6b656;" parent="1" source="3" target="4" edge="1">
                    <mxGeometry relative="1" as="geometry"/>
                </mxCell>
                <mxCell id="9" value="Trigger: CI Complete / Enrichment" style="text;html=1;strokeColor=none;fillColor=none;align=left;verticalAlign=top;whiteSpace=wrap;fontStyle=1" parent="1" vertex="1">
                    <mxGeometry x="520" y="20" width="80" height="50" as="geometry"/>
                </mxCell>
                <mxCell id="10" style="edgeStyle=orthogonalEdgeStyle;rounded=0;orthogonalLoop=1;jettySize=auto;html=1;endArrow=block;endFill=1;strokeColor=#9673a6;" parent="1" source="4" target="5" edge="1">
                    <mxGeometry relative="1" as="geometry"/>
                </mxCell>
                <mxCell id="11" value="Write/Update CI Graph" style="text;html=1;strokeColor=none;fillColor=none;align=center;verticalAlign=bottom;" parent="1" vertex="1">
                    <mxGeometry x="650" y="250" width="120" height="20" as="geometry"/>
                </mxCell>
                <mxCell id="12" value="In-Memory CI Store (Staging, Query, Merge)" style="text;html=1;strokeColor=none;fillColor=none;align=left;verticalAlign=top;fontSize=10;fontColor=default;whiteSpace=wrap;" parent="1" vertex="1">
                    <mxGeometry x="310" y="140" width="200" height="25" as="geometry"/>
                </mxCell>
                <mxCell id="13" value="&lt;p&gt;&lt;font style=&quot;line-height: 100%;&quot;&gt;User / LLM can inspect, merge, or&lt;br&gt;&lt;/font&gt;&lt;span style=&quot;background-color: transparent;&quot;&gt;trigger updates&lt;/span&gt;&lt;/p&gt;" style="text;html=1;align=center;verticalAlign=top;fontStyle=0;fontSize=10;labelPosition=center;verticalLabelPosition=middle;fontColor=default;whiteSpace=wrap;" parent="1" vertex="1">
                    <mxGeometry x="20" y="140" width="160" height="50" as="geometry"/>
                </mxCell>
            </root>
        </mxGraphModel>
    </diagram>
</mxfile>